<svg width="32" height="40" viewBox="0 0 32 40" fill="none" xmlns="http://www.w3.org/2000/svg">
<g id="Group 34209 1" clip-path="url(#clip0_160_1215)">
<path id="Vector" d="M1.39212 3.31996L16 0L30.6078 3.31996C31.4213 3.50484 32 4.24267 32 5.09485V23.2525C32 26.9 30.2176 30.3062 27.2501 32.3295L16 40L4.74987 32.3295C1.78242 30.3062 0 26.9 0 23.2525V5.09485C0 4.24267 0.57872 3.50484 1.39212 3.31996ZM3.55556 6.55335V23.2525C3.55556 25.6842 4.74382 27.9549 6.72213 29.3038L16 35.6296L25.2779 29.3038C27.2562 27.9549 28.4444 25.6842 28.4444 23.2525V6.55335L16 3.72507L3.55556 6.55335Z" fill="#FCFCFC"/>
<path id="Vector_2" d="M14.9848 25.7074V12.2642H17.6595V25.7074H14.9848ZM9.60547 20.3182V17.6435H23.0487V20.3182H9.60547Z" fill="#FCFCFC"/>
</g>
<defs>
<clipPath id="clip0_160_1215">
<rect width="32" height="40" fill="white"/>
</clipPath>
</defs>
</svg>
