<svg width="28" height="34" viewBox="0 0 28 34" fill="none" xmlns="http://www.w3.org/2000/svg">
<path id="Vector" d="M1.67461 3.23897L14 0.5L26.3253 3.23897C27.0117 3.39149 27.5 4.00021 27.5 4.70326V19.6833C27.5 22.6925 25.9961 25.5026 23.4923 27.1718L14 33.5L4.5077 27.1718C2.00392 25.5026 0.5 22.6925 0.5 19.6833V4.70326C0.5 4.00021 0.988295 3.39149 1.67461 3.23897ZM3.5 5.90651V19.6833C3.5 21.6895 4.5026 23.5628 6.1718 24.6756L14 29.8945L21.8282 24.6756C23.4974 23.5628 24.5 21.6895 24.5 19.6833V5.90651L14 3.57318L3.5 5.90651ZM14 15.5C11.929 15.5 10.25 13.8211 10.25 11.75C10.25 9.67894 11.929 8 14 8C16.071 8 17.75 9.67894 17.75 11.75C17.75 13.8211 16.071 15.5 14 15.5ZM7.29119 23C7.66429 19.625 10.5256 17 14 17C17.4744 17 20.3357 19.625 20.7087 23H7.29119Z" fill="#EDEDEE"/>
</svg>
