<svg width="26" height="26" viewBox="0 0 26 26" fill="none" xmlns="http://www.w3.org/2000/svg">
<g id="eye-line">
<path id="Vector" d="M13.0005 3.25C18.8419 3.25 23.7018 7.45307 24.7206 13C23.7018 18.5469 18.8419 22.75 13.0005 22.75C7.15896 22.75 2.29916 18.5469 1.28027 13C2.29916 7.45307 7.15896 3.25 13.0005 3.25ZM13.0005 20.5833C17.5891 20.5833 21.5155 17.3897 22.5093 13C21.5155 8.61037 17.5891 5.41667 13.0005 5.41667C8.41181 5.41667 4.4854 8.61037 3.49151 13C4.4854 17.3897 8.41181 20.5833 13.0005 20.5833ZM13.0005 17.875C10.3081 17.875 8.12544 15.6924 8.12544 13C8.12544 10.3076 10.3081 8.125 13.0005 8.125C15.6928 8.125 17.8755 10.3076 17.8755 13C17.8755 15.6924 15.6928 17.875 13.0005 17.875ZM13.0005 15.7083C14.4962 15.7083 15.7088 14.4958 15.7088 13C15.7088 11.5042 14.4962 10.2917 13.0005 10.2917C11.5047 10.2917 10.2921 11.5042 10.2921 13C10.2921 14.4958 11.5047 15.7083 13.0005 15.7083Z" fill="#3171A3"/>
</g>
</svg>
